<?xml version="1.0" encoding="UTF-8"?>
<svg id="Layer_1" data-name="Layer 1" xmlns="http://www.w3.org/2000/svg" viewBox="0 0 32 32">
  <defs>
    <style>
      .cls-1 {
        fill: #f93;
      }
    </style>
  </defs>
  <path class="cls-1" d="M28.36,21.15c1.31.93,2.85.27,2.53.84-.16.29-.8.21-1.46.06v4.57l1.51.07.04,1.83c0,.2-.16.32-.35.32h-1.19v1.44c0,.23-.12.38-.37.37l-1.96-.04c-.16-.6-.06-1.17-.06-1.78H4.99l-.03,1.78h-2.28l-.05-1.77h-1.34c-.11,0-.26-.11-.26-.23l.04-1.92,1.56-.07V5.6l-1.23-.02c-.22,0-.37-.16-.36-.39l.07-1.73,1.53-.05v-1.6c0-.25.16-.45.41-.45h1.54c.22,0,.42.12.42.36l.02,1.69,22,.02.02-1.61c0-.22.18-.38.4-.38h1.55c.29,0,.46.21.46.49v1.51h1.19c.19,0,.34.15.34.34v1.48c0,.2-.14.34-.34.34h-1.2v15.09c.57.34,1.18-.03,1.4.22.44.51-1.31.65-2.58-.27l-1.46-1.06c-2.31-1.67-5.21-2.07-7.84-.98.06.11.15.21.29.31,2.56-1.08,5.26-.52,7.53,1.08l1.61,1.14-.04.02ZM27,19.16l.02-13.55h-1.62v4.72c.01.16-.1.2-.16.23-.08.05-.28,0-.28-.13v-4.83h-1.21v4.72c0,.14-.11.19-.16.22-.06.04-.26,0-.26-.12v-4.83h-1.26l-.04,2.06c0,.13-.38.1-.38-.07l-.02-2h-1.21l-.02,4.7c0,.15-.19.23-.26.2-.11-.05-.16-.1-.16-.26l.02-4.63h-1.23v4.7c0,.1-.16.14-.21.14s-.2-.03-.2-.13l-.03-4.71h-1.22v6.83c.01.16-.21.2-.28.14-.05-.04-.16-.09-.16-.22v-6.75h-1.23l-.02,4.54c0,.07-.29.04-.32-.02-.02-.06-.1-.12-.1-.26v-4.25h-1.27v3.07c0,.13-.23.19-.3.13-.05-.03-.13-.1-.13-.22v-2.99h-1.24v4.56c0,.17-.16.24-.28.21-.07-.02-.16-.07-.16-.21v-4.54h-1.23v4.07c.01.16-.06.26-.16.29-.08.02-.29-.07-.29-.2v-4.17h-1.26v4.31c0,.14-.21.2-.28.16-.05-.03-.16-.09-.16-.21v-4.26h-1.17v4.65c.01.17-.08.24-.14.29-.05.05-.28.02-.28-.06l-.02-4.89h-1.63v6.02c.01.28-.24.5-.45.42V1.83l-1.48.02v12.47c1.79-2.62,4.44-4.26,7.59-3.9.13.01.25.17.22.25-.02.05-.14.1-.21.17-1.27,1.43-.89,3.66.74,4.65l-.3-1.08c-.5.49-.48-.34.01-1.35l-.3.06c-.31.07-.04-.87,1.02-1.4-.17-.09-.36-.34-.25-.45.32-.31.77-.29,1.22-.35-.35-.78-.17-1.84.13-1.87.25-.03.45.95,1.21,1.42-.03-.46-.05-.86.27-1.16.26.15.26.4.36.6.38.76.94,1.35,1.51,1.99-.04.48.12.89.49,1.13.35.23.31.54.2.9-.14.45-.45.85-.97.66-.42-.15-.65-.61-1.02-.83s-.88-.24-1.24-.63c-1.01,1.35,1.23,2.49,1.97,4.07.81.1,1.51.31,2.23.78l-.03-3.77c0-.36-.15-.44.05-.85l.75-1.52.04-1.17c.5.14.95.26,1.4.51-.33.33-.69.35-1.03.58l1.06,2.12c-.18.16-.26.5-.15.61.17.09.38.06.52.04v-2.35l-.24-.32,1.05-2.52.07-1.38c.5.2,1.05.37,1.54.69-.4.34-.8.31-1.18.53l1.17,2.75c-.1.08-.24.17-.27.25v2.36c.19.01.41.01.53-.07.09-.16,0-.41-.11-.59l.98-2.02.06-1.15c.47.14.97.25,1.37.55-.31.29-.63.33-1,.52l.94,1.98c.08.17-.16.29-.16.38v4.1l1.69.93h0ZM28.97,20.57V1.92l-1.5-.02v17.63l1.5,1.03h0ZM1.48,3.87v1.25h1.14v-1.25s-1.14,0-1.14,0ZM6.64,3.87h-1.64v1.25h1.64v-1.25ZM8.24,3.87h-1.17v1.25h1.17v-1.25ZM9.94,3.87h-1.24v1.25h1.24v-1.25ZM10.4,3.87v1.24h1.22v-1.24s-1.22,0-1.22,0ZM12.07,3.88v1.24h1.25v-1.24s-1.25,0-1.25,0ZM13.75,3.88v1.25h1.26v-1.25h-1.26ZM15.45,3.88v1.25h1.22v-1.25h-1.22ZM18.33,3.88h-1.23v1.25h1.23v-1.25ZM20,3.89h-1.23v1.24h1.23v-1.24ZM20.43,3.89v1.24h1.21v-1.24h-1.21ZM22.06,3.9v1.24h1.27v-1.24s-1.27,0-1.27,0ZM24.96,3.9h-1.21v1.25h1.21v-1.25ZM27.04,3.9h-1.63v1.24h1.63v-1.24ZM30.52,3.9h-1.1v1.25h1.1v-1.25ZM22.32,11.62l-.7-1.64-.69,1.69,1.39-.04h0ZM13.65,19.74c0,.08-.13.34-.02.39l1.19.65c.63-.86.94-1.91.65-2.95-.19-.7-.67-1.23-1.12-1.78l-1-1.23c-.43-.54-.45-1.28-.05-1.87.13-.2.5-.45.71-.26.24.22.41.46.77.51.91.12,1.07,1.15,1.56.93.21-.09.3-.54.2-.75-.61-.22-.6-.88-.8-1.33l-1.05-1.37v.69c-.66-.31-1.12-.69-1.57-1.17.08.49.33.78.6,1.2-.51,0-.88.05-1.3.15.48.53-.37.37-.96,1.07.18,0,.34-.01.49.1-.79,1.04-.38,1.21-.37,1.36.05.79.37,1.4.71,2.24-2.04-.44-3.26-2.52-2.71-4.45-1.13,1.37-1.4,3.16-1.27,4.84,1.17-.64,2.69-.18,3.5.7.43.47.46,1.16.07,1.65l-.73.63c1.3-.13,2.08.61,2.51.02v.03ZM8.45,11.56l1.07-.73c-2.37.12-4.42,1.43-5.74,3.36.84-.29,1.63-.02,1.99.83.54-1.4,1.42-2.6,2.68-3.46ZM7.84,16.26c-.08-1.68.31-3.21,1.29-4.59-1.58.95-2.63,2.43-3.19,4.17.7-.33,1.4-.13,1.9.43h0ZM22.23,14.55v-2.46h-1.21l.04,2.4c.04.14.39,0,.48-.06.2,0,.39.2.68.12h0ZM19.56,13.6l-.6-1.16-.56,1.17h1.16ZM24.9,13.62l-.58-1.14-.6,1.17,1.18-.03ZM19.61,17.88l-.02-3.84h-1.19v4.26c.43-.1.8-.23,1.19-.42h.02ZM24.88,18.06v-4.01h-1.22v3.7l1.22.32h0ZM8.69,17.61l.03,1.95c.73.3,1.25-.4,1.25-.63l.05-1.64c.06-.11.42-.03.42.13l.04,1.24c.36-.27.74-.41,1.17-.6-.18-.44-.57-.67-.95-.89-1.54-.89-2.66.41-2.74.27-.19-.34-.44-1.54-1.64-1.29l-.88.4-.13-1.16c-.06-.5-.37-.83-.89-.85s-1.04.16-1.37.55v15.08h1.48v-15.29c0-.11.25-.09.3-.03.06.07.15.16.15.33v11.44h1.4c.17-.35.25-.71.25-1.1v-8.97c.26-.1.44.06.44.27v2.51c.39.13.74.18,1.18.22v-1.65c0-.23.34-.42.41-.29h.03ZM22.52,17.58l.72.08-.04-2.73c-.19.18-.29.32-.48.3-.17-.01-.22-.15-.34-.41-.11.32-.21.43-.44.41-.18-.02-.24-.15-.34-.42-.11.28-.15.39-.33.41s-.32-.03-.35-.24c-.01-.09-.1-.13-.14-.11-.06.03-.07.11-.08.19-.03.18-.28.23-.39.13l-.27-.24v2.83l.79-.16c-.13-1.01.08-1.88.81-1.85.32.01.69.24.8.6.12.39.06.78.07,1.2h.01ZM22.08,17.57v-.93c-.01-.25-.21-.41-.42-.41-.17,0-.37.13-.37.36v1.01l.79-.03ZM24.92,22.93c-1.63.21-3.13-.35-4.18-1.56l-1.53-1.77c-.86-1-1.99-1.75-3.29-1.94-.09.25.09.36.28.41,1.1.27,2,.88,2.74,1.71l2.05,2.29c.81.9,2.95,1.59,3.93.86ZM17.29,18.94l-1.29-.49c.02.62-.11,1.1-.3,1.65,0,0,1.59-1.16,1.59-1.16ZM11.5,18.58l-.16.07c-.73.32-1.39.77-1.66,1.55,1.06-.56,2.26-1.81,1.82-1.62ZM22.72,19.25l2.16.5c.22-.4-.6-.54-1.4-.74-1.29-.32-2.66-.26-3.91.24.04.69,1.52-.38,3.14,0h.01ZM15.7,21.13l2.29-1.65c-.11-.19-.26-.24-.37-.22-.1.02-.17.1-.27.18l-2.03,1.56c.01.11.24.24.39.14h0ZM24.87,20.8c.06-.26.04-.43,0-.57-1.54-.52-3.09-.84-4.76-.3l1.14,1.31c1.18-.51,2.39-.7,3.63-.44h-.01ZM27.02,26.61v-5.87l-1.68-1.07.02,6c0,.34.09.66.18.96h1.48v-.02ZM8.84,20.43c.16.02.28-.03.34-.12.06-.08.08-.17.04-.25l-2.1-.23c-.02.13-.02.23,0,.35l1.72.26h0ZM16.59,21.52l1.96-1.43c.09-.07-.15-.35-.29-.25l-2.28,1.62c.17.25.38.23.62.06h0ZM10.18,22.01c-.26-.24-.29-.63-.17-.94.3-.78,2.59-.68,3.93.13l3.62,2.19c.08.05.29-.06.35-.15l-2.49-1.58-1.89-1.02c-1.25-.68-3.58-.68-3.9.35-.12.38-.03.83.21,1.12,1.1,1.33,3.17,1.06,4.62-.06-.14-.25-.27-.25-.5-.1-1.21.78-2.76,1.03-3.78.07h0ZM18.44,22.95l1.67-1.16-1.23-1.39-2.15,1.56s1.71.99,1.71.99ZM8.37,20.83l-1.26-.21c-.02.12-.02.21,0,.34.45.04.85,0,1.26-.13ZM13.7,21.6c-1.11-.72-3.13-.8-3.27-.25-.18.72,1.81,1.31,3.27.25ZM7.13,21.82c.94-.02,2-.19,1.95-.8-.71.25-1.3.45-1.96.43-.03.16-.03.28.01.37ZM24.87,21.57c.12-.22,0-.34-.09-.36-1.08-.19-2.15-.09-3.17.36.13.2.34.24.57.17.89-.29,1.8-.33,2.69-.17ZM28.98,30.18v-8.26l-1.52-.82v9.08h1.52s0,0,0,0ZM15.24,22.49c-.18-.21-.33-.23-.41-.2-.09.03-.16.11-.25.18-1.78,1.37-4.32,1.42-5.35-.52.28,1.9,2.99,2.34,4.39,1.51l1.61-.96h.01ZM24.89,22.43c.07-.18.01-.4-.05-.41-.8-.16-1.64-.13-2.45.09.81.38,1.66.46,2.51.32h-.01ZM8.88,22.38c.02-.14.02-.25-.01-.39-.83.37-1.64.17-1.79.4-.22.33.87.32,1.8,0h0ZM19.27,23.29l1.43-.89c0-.09-.16-.19-.24-.22-.11-.04-.22.04-.33.11l-2.95,1.89c-.13.08-.14.34-.02.4l2.12-1.3h0ZM7.12,25.12h9.52l.03-.95c0-.26.3-.33.54-.48l-1.48-.96-1.83,1.07c-1.65.79-3.84.64-4.82-1.01-.65.2-1.28.3-1.97.29l.02,2.03h-.01ZM23.15,23.64c-.86-.2-1.49-.46-2.11-.93l-1.29.83c1.14.36,2.31.45,3.4.1ZM18.92,24.08c1.98.86,4.16.7,5.97-.3.03-.05.04-.22-.02-.34l-.99.39c-1.49.6-3.1.59-4.58-.02-.15.07-.33.12-.38.27ZM24.89,25.13v-.84c-.96.49-1.95.73-2.99.8l2.99.04ZM21.3,25.11c-1.06-.09-1.92-.29-2.79-.74l-1.38.77,4.17-.03ZM7.11,25.57v1.06h1.12v-1.06h-1.12ZM9.91,25.57h-1.22v1.07h1.22v-1.07ZM10.37,25.57v1.06h1.22v-1.06h-1.22ZM12.04,25.57v1.06h1.23v-1.06h-1.23ZM14.93,25.58h-1.21v1.06h1.21v-1.06ZM15.39,25.56v1.08h1.23v-1.08h-1.23ZM17.07,25.57v1.06h1.22v-1.06h-1.22ZM19.95,25.57h-1.2v1.06h1.2v-1.06ZM21.61,25.57h-1.21v1.05h1.21v-1.05ZM22.05,25.57v1.06h1.23v-1.06h-1.23ZM24.9,25.57h-1.17v1.06h1.17v-1.06ZM2.61,28.39l.02-1.31h-1.14l.02,1.3h1.1ZM4.99,27.09v1.29h1.21v-1.29h-1.21ZM7.02,27.07h-.39v1.32h.39v-1.32ZM7.49,27.07l-.02,1.31h.37l.02-1.31h-.37ZM8.66,27.07h-.39l.02,1.31h.39l-.02-1.31ZM9.14,27.08v1.3h.37v-1.3h-.37ZM9.97,27.07v1.31h.39v-1.31h-.39ZM11.18,27.06h-.38v1.31h.38v-1.31ZM12.01,27.07h-.38v1.32h.38v-1.32ZM12.46,27.06v1.32h.39v-1.32h-.39ZM13.68,27.06h-.4v1.33h.4v-1.33ZM14.53,27.07h-.4v1.32h.4v-1.32ZM14.99,27.07v1.31h.38v-1.31h-.38ZM16.21,27.07h-.4v1.32h.4v-1.32ZM16.66,27.07v1.32h.37v-1.32h-.37ZM17.84,27.07h-.38v1.3h.39v-1.3ZM18.69,27.06h-.39l.02,1.33h.39l-.02-1.33ZM19.5,27.06h-.38v1.32h.39v-1.32ZM19.95,27.07v1.32h.4v-1.32h-.4ZM20.79,27.07v1.32h.39v-1.32h-.39ZM21.62,27.06v1.32h.39v-1.32h-.39ZM22.83,27.07h-.38v1.32h.38v-1.32ZM23.67,27.06h-.39v1.32h.39v-1.32ZM24.51,27.07h-.39v1.32h.39v-1.32ZM25.35,27.06h-.4v1.32h.4v-1.32ZM25.82,27.09v1.3h1.2v-1.3h-1.2ZM29.42,27.09v1.29h1.08v-1.29h-1.08Z"/>
  <path class="cls-1" d="M15.54,12.42c-.01.26-.33.14-.44.03-.08-.09-.27-.29-.13-.43.14-.06.58.14.56.41h0Z"/>
  <rect class="cls-1" x="24.1" y="14.75" width=".35" height=".93" transform="translate(-.06 .1) rotate(-.23)"/>
  <rect class="cls-1" x="18.79" y="14.76" width=".35" height=".92" transform="translate(-.41 .53) rotate(-1.58)"/>
  <rect class="cls-1" x="21.21" y="12.79" width=".83" height=".39" transform="translate(8.44 34.49) rotate(-89.46)"/>
</svg>